<?xml version="1.0" encoding="utf-8"?>
<!-- Generator: Adobe Illustrator 22.0.1, SVG Export Plug-In . SVG Version: 6.00 Build 0)  -->
<svg version="1.1" id="Camada_1" xmlns="http://www.w3.org/2000/svg" xmlns:xlink="http://www.w3.org/1999/xlink" x="0px" y="0px"
	 viewBox="0 0 200 37.8" style="enable-background:new 0 0 200 37.8;" xml:space="preserve">
<style type="text/css">
	.st0{fill-rule:evenodd;clip-rule:evenodd;fill:#FFFFFF;}
	.st1{fill:#FFFFFF;}
</style>
<g>
	<g>
		<g>
			<polygon class="st0" points="126.3,15.1 131.1,17.8 131.1,23.3 126.4,26 121.7,23.3 121.6,17.9 126.3,15.1 			"/>
			<polygon class="st0" points="121.1,37.8 126.8,34.5 126.7,28 121.1,24.8 115.4,28.1 115.5,34.6 121.1,37.8 			"/>
			<polygon class="st0" points="110.8,26.4 114.5,28.5 114.5,32.7 110.9,34.8 107.2,32.7 107.2,28.5 110.8,26.4 			"/>
			<polygon class="st0" points="102,15.2 107.6,18.4 107.6,24.8 102.1,28.1 96.4,24.9 96.4,18.4 102,15.2 			"/>
			<polygon class="st0" points="107.7,6.5 112.2,9.1 112.2,14.3 107.7,17 103.2,14.4 103.1,9.2 107.7,6.5 			"/>
			<polygon class="st0" points="121.5,16.9 128.8,12.6 128.7,4.2 121.4,0 114.1,4.3 114.1,12.7 121.5,16.9 			"/>
		</g>
		<g>
			<g>
				<path class="st1" d="M141.1,6.5v14.1c0,4.2,1.6,6.4,4.4,6.4c2.9,0,4.5-2,4.5-6.4V6.5h5.5v13.7c0,7.6-3.8,11.2-10.2,11.2
					c-6.2,0-9.8-3.5-9.8-11.2V6.5H141.1z"/>
				<path class="st1" d="M160.4,6.5h14.9v4.5h-9.4v5.6h8.8v4.5h-8.8V31h-5.5V6.5z"/>
				<path class="st1" d="M200,29.9c-1.7,0.6-4.9,1.4-8.2,1.4c-4.5,0-7.7-1.1-10-3.3c-2.2-2.1-3.5-5.3-3.5-8.9c0-8.1,6-12.8,14-12.8
					c3.2,0,5.6,0.6,6.8,1.2l-1.2,4.5c-1.3-0.6-3-1.1-5.7-1.1c-4.6,0-8.1,2.6-8.1,7.9c0,5.1,3.2,8,7.7,8c1.2,0,2.3-0.1,2.7-0.3v-5.2
					h-3.8V17h9.1V29.9z"/>
			</g>
		</g>
	</g>
	<g>
		<g>
			<path class="st1" d="M18.6,30.4c-1,0.5-3.3,1.1-6.3,1.1C4.7,31.5,0,26.6,0,19.2c0-8,5.6-12.8,13-12.8c2.9,0,5,0.6,5.9,1.1
				l-0.9,3.5c-1.1-0.5-2.8-0.9-4.7-0.9c-4.9,0-8.5,3.1-8.5,8.9c0,5.4,3.1,8.7,8.4,8.7c1.8,0,3.6-0.4,4.8-0.9L18.6,30.4z"/>
			<path class="st1" d="M30.4,6.8v24.2H26V6.8H30.4z"/>
			<path class="st1" d="M44,24.2l-2.1,6.9h-4.6l7.8-24.2h5.6l7.9,24.2h-4.8l-2.2-6.9H44z M50.9,20.9l-1.9-6
				c-0.5-1.5-0.9-3.1-1.2-4.5h-0.1c-0.4,1.4-0.8,3.1-1.1,4.5l-1.9,6H50.9z"/>
			<path class="st1" d="M65.5,7.2c1.7-0.3,4.1-0.5,6.7-0.5c3.5,0,5.8,0.6,7.5,1.9c1.3,1.1,2.1,2.8,2.1,4.9c0,3.1-2.1,5.2-4.4,6v0.1
				c1.8,0.6,2.8,2.3,3.4,4.7c0.8,3,1.4,5.8,1.9,6.8h-4.5c-0.4-0.7-1-2.7-1.6-5.7c-0.7-3.2-1.8-4.2-4.3-4.2h-2.2v9.9h-4.4V7.2z
				 M69.9,17.9h2.6c3,0,4.8-1.6,4.8-4c0-2.6-1.8-3.9-4.7-3.9c-1.4,0-2.3,0.1-2.7,0.2V17.9z"/>
		</g>
	</g>
</g>
</svg>
